<?xml version="1.0" encoding="utf-8"?>
<!-- Generator: Adobe Illustrator 23.0.0, SVG Export Plug-In . SVG Version: 6.00 Build 0)  -->
<svg version="1.1" xmlns="http://www.w3.org/2000/svg" xmlns:xlink="http://www.w3.org/1999/xlink" x="0px" y="0px"
	 viewBox="0 0 374.81 341.11" style="enable-background:new 0 0 374.81 341.11;" xml:space="preserve">
<style type="text/css">
	.st0{fill:#48000B;}
	.st1{font-family:'PaintedParadise';}
	.st2{font-size:76.0803px;}
</style>
<g id="Camada_2">
</g>
<g id="Camada_1">
	<text transform="matrix(1.2846 0 0 1 15.5069 288.3825)" class="st0 st1 st2">cherry go</text>
	<g>
		<path class="st0" d="M162.92,37.78c7.55,6.07,14.83,12.14,21.18,19.23c15.98,17.83,26.93,38.39,33.49,61.34
			c0.63,2.21,1.19,4.09,2.16,3.81c1.04-0.3,2.45-0.09,4.78-1.31c0.78-0.41,9.22-3.87,0.53-2.08c-0.21,0.04-0.55,0.15-0.59-0.03
			c-0.48-2.05-1.43-3.83-1.93-5.85c-0.71-2.89-1.51-3.29-0.78-4.03c0.73-0.75,2.79-0.99,4.64-1.13c9.61-0.71,17.82,2.57,24.95,8.58
			c21.97,18.53,20,57.07-3.36,73.85c-15.84,11.37-32.37,13.22-49.44,4.02c-17.44-9.4-27.53-24-27.78-44.41
			c-0.1-8.46,2.61-16.1,7.52-22.9c6.12-8.48,14.73-11.09,25.9-8.11c5.76,1.54,6.11,1.25,4.58-4.24
			c-7.43-26.52-22.25-48.39-42.27-66.96c-1.04-0.97-2.05-2.67-3.86-1.65c-2.25,1.26-0.73,3.03-0.23,4.48
			c6.14,17.72,9.82,35.79,8.22,54.66c-0.43,5.11-1.47,10.09-3.05,14.98c-1.07,3.3-3.31,3.67-6.01,2.5
			c-2.56-1.11-4.27-2.84-2.87-6.02c10.37-23.57,4.55-46.33-3.45-69c-1.23-3.47-3.67-5.47-6.59-7.39c-2.28-1.51-5.45-3.22-3.45-6.85
			c2.03-3.7,4.96-3.14,8.29-1.42c5.96,3.08,18.75,0.11,23.06-4.67c8.12-9.02,19.05-10.38,30.07-9.08
			c15.18,1.8,26.6,10.63,36.17,22.09c1.87,2.24,1.45,3.34-1.45,4.13c-12,3.26-24.01,6.73-36.43,7.7
			c-11.82,0.92-22.24-2.42-29.28-12.93C173.33,35.67,168.55,35.14,162.92,37.78z"/>
	</g>
	<path class="st0" d="M250.16,274.07c-3.32,0.21-6.63,0.51-9.95,0.58c-1.6,0.03-3.43-0.21-3.61-2.77c-0.18-2.5,0.71-4.41,3.02-4.73
		c6.35-0.88,12.73-0.93,19.09-0.2c1.46,0.17,3.48,0.64,3.24,3.32c-0.23,2.51-1.55,3.98-3.79,3.96c-2.66-0.02-5.32-0.01-7.98-0.01
		C250.16,274.18,250.16,274.12,250.16,274.07z"/>
	<path class="st0" d="M174.84,112.43l-2.08,8.23l-1.42,3.77l0.77,0.57c0,0,5.92-9.04,9.31-9.63
		C184,114.91,174.84,112.43,174.84,112.43z"/>
	<path class="st0" d="M174,179.22c-8.4-12.91-11.29-27-6.66-41.93c0.32-1.04,1.87-6.57,1.87-6.57s-4.44-0.93-6.14-1.25
		c-6.15-1.18-12.22-3.29-16.57-8.37c-1.55-1.81-2.13-3.94-1.18-6.18c0.88-2.06,2.81-2.5,4.74-2.1c4.38,0.92,5.25-2.16,5.94-5.17
		c0.78-3.45-2.37-3.75-4.39-4.53c-14.59-5.62-32.12,0.9-39.68,14.61c-4.91,8.9-6.33,18.6-6.78,28.04
		c0.23,13.09,3.63,24.43,13.09,33.25c15.62,14.55,33.16,15.97,53.94,6.55C175.64,184.01,176.25,182.67,174,179.22z"/>
</g>
</svg>
