<svg id="Camada_1" data-name="Camada 1" xmlns="http://www.w3.org/2000/svg" viewBox="0 0 275.28 310.73"><defs><style>.cls-1{fill:#d53f8c;}</style></defs><title>Logo-9</title><path class="cls-1" d="M148.19,51.6c12.87,10.34,25.27,20.69,36.09,32.76,27.22,30.37,45.88,65.4,57.06,104.51,1.08,3.77,2,7,3.68,6.5s4.17-.16,8.14-2.23c1.33-.7,15.7-6.6.89-3.54-.36.07-.93.26-1-.06-.81-3.5-2.43-6.53-3.28-10-1.21-4.92-2.57-5.6-1.33-6.87s4.76-1.69,7.9-1.92c16.37-1.2,30.36,4.38,42.51,14.63,37.44,31.57,34.08,97.24-5.72,125.82-27,19.38-55.16,22.52-84.24,6.84-29.71-16-46.9-40.88-47.33-75.67-.17-14.41,4.45-27.43,12.81-39,10.42-14.45,25.1-18.89,44.13-13.82,9.82,2.62,10.41,2.13,7.79-7.22-12.66-45.18-37.9-82.45-72-114.09-1.77-1.64-3.49-4.54-6.58-2.81-3.83,2.15-1.24,5.16-.39,7.64,10.46,30.18,16.73,61,14,93.14a113.41,113.41,0,0,1-5.19,25.51c-1.82,5.63-5.65,6.26-10.25,4.27-4.35-1.89-7.27-4.84-4.89-10.26,17.68-40.16,7.76-78.93-5.88-117.56-2.09-5.92-6.26-9.32-11.23-12.6C120,53,114.56,50.1,118,43.9s8.45-5.35,14.13-2.42c10.16,5.25,32,.19,39.28-8,13.84-15.37,32.47-17.68,51.23-15.46,25.86,3.06,45.33,18.11,61.63,37.63,3.19,3.81,2.47,5.69-2.47,7-20.45,5.56-40.91,11.46-62.07,13.12-20.14,1.57-37.9-4.13-49.88-22C165.94,48,157.79,47.11,148.19,51.6Z" transform="translate(-49.76 -17.34)"/><path class="cls-1" d="M168.51,178.8l-3.54,14-2.42,6.42,1.31,1s10.08-15.4,15.85-16.42C184.11,183,168.51,178.8,168.51,178.8Z" transform="translate(-49.76 -17.34)"/><path class="cls-1" d="M167.08,292.6c-14.32-22-19.24-46-11.35-71.44.55-1.77,3.19-11.19,3.19-11.19s-7.56-1.58-10.46-2.14c-10.49-2-20.83-5.6-28.23-14.26-2.64-3.08-3.64-6.7-2-10.53,1.49-3.51,4.79-4.26,8.08-3.57,7.46,1.56,9-3.68,10.11-8.81,1.34-5.88-4-6.39-7.48-7.71-24.86-9.58-54.74,1.53-67.61,24.88C53,203,50.53,219.53,49.76,235.6c.4,22.31,6.19,41.64,22.31,56.66,26.61,24.8,56.49,27.22,91.91,11.17C169.87,300.76,170.91,298.49,167.08,292.6Z" transform="translate(-49.76 -17.34)"/></svg>