<svg id="Camada_1" data-name="Camada 1" xmlns="http://www.w3.org/2000/svg" viewBox="0 0 343.91 303.28"><defs><style>.cls-1{fill:#d53f8c;}</style></defs><title>logo-title</title><path class="cls-1" d="M40.86,258.67l-.68-.08c-.07,0-.14.05-.2.15-.65.31-1.29.6-1.91.88a4.13,4.13,0,0,0-1.41.95,2.45,2.45,0,0,0-1.08.61,7.43,7.43,0,0,1-1.07.83l-3.91,3.73a7,7,0,0,0-.93,1.07c-.29.4-.67.86-1.12,1.37s-.66,1.11-1,1.67-.65,1.12-1,1.67c-1.82,3.2-2.54,6.06-2.15,8.6,0,.05,0,.19-.05.42s0,.37.05.42l.78,1.44a2.54,2.54,0,0,0,1.47.92,13.09,13.09,0,0,0,2.44.07,14.75,14.75,0,0,0,2.93-.53,14.72,14.72,0,0,0,2.69-.91c.62-.31,1.48-.71,2.59-1.22.59-.36,1.37-.81,2.35-1.37s2-1.14,3-1.75,2-1.22,2.88-1.83a21.17,21.17,0,0,0,2.15-1.59c.52-.36,1.16-.85,1.91-1.49s1.53-1.28,2.34-1.94,1.58-1.3,2.3-1.94,1.3-1.18,1.76-1.63c.26-.26.5-.52.73-.8l.64-.8a5.66,5.66,0,0,1,1.22-1,1.76,1.76,0,0,0,.73-.84,1.87,1.87,0,0,0,.29-.42,1.08,1.08,0,0,1,.59-.34.52.52,0,0,1,.1.38,1.18,1.18,0,0,0-.39.19V264a.37.37,0,0,0,.44-.15c.09-.15.18-.18.24-.08s.29.16.49,0l.39-.15.29-.3a3.89,3.89,0,0,0,.1.8,1.08,1.08,0,0,1-.1.79c-.06.06-.05.09,0,.12a1.67,1.67,0,0,0,.34,0,1.25,1.25,0,0,1,.1.53.8.8,0,0,0,.3,0,1.4,1.4,0,0,1,.39,0v.61a1.63,1.63,0,0,1-.2.76,4.1,4.1,0,0,0-.88,1.9v.8a1,1,0,0,1-.19.65q-1.47,1.51-3.67,3.84a40.59,40.59,0,0,1-4.54,4.15,7.35,7.35,0,0,0-.83.57,9.77,9.77,0,0,1-.83.57,20.07,20.07,0,0,1-2.25,1.79c-.92.63-1.88,1.25-2.89,1.86s-2,1.17-2.93,1.68-1.71.93-2.29,1.29-1.44.73-2.15,1.14a15.28,15.28,0,0,1-2.06,1,14.09,14.09,0,0,1-3.56,1.29,27.24,27.24,0,0,1-4.65.69,32.48,32.48,0,0,1-4.74,0,12.65,12.65,0,0,1-3.76-.8A12,12,0,0,1,18,287.69,6.84,6.84,0,0,1,16.57,286a6.68,6.68,0,0,1-.78-2.06,18.08,18.08,0,0,1-.34-2.66,40.07,40.07,0,0,1,.49-5.13,20.9,20.9,0,0,1,1.76-5.37A19.87,19.87,0,0,0,19,268.67a15,15,0,0,1,1.27-2q1.07-1.59,2.25-3.12a36.56,36.56,0,0,1,2.54-3l2.24-2.21a20.42,20.42,0,0,1,2.45-2.05A8.84,8.84,0,0,0,31,255.2a5,5,0,0,1,1.41-1,22.42,22.42,0,0,1,2-1.26c.68-.38,1.35-.72,2-1a10,10,0,0,1,3.47-1.07,26.51,26.51,0,0,1,3.67-.31,2.1,2.1,0,0,1,.68.08l.39.15a2.07,2.07,0,0,1,1.56.42,5.68,5.68,0,0,1,1.62,1.68,7.71,7.71,0,0,1,1.07,2.7,8.46,8.46,0,0,1-.05,3.5,7.92,7.92,0,0,1-.68,2.13c-.33.66-.68,1.34-1.08,2.05a9.84,9.84,0,0,0-.68,1.07q-.2.38-.39.72c-.13.23-.28.47-.44.72s-.38.58-.64,1l-.53.57a3.09,3.09,0,0,1-.64.5l-1.46,2a2.49,2.49,0,0,1-1.76,1,.53.53,0,0,0-.3.27.93.93,0,0,1-.29.34,5.08,5.08,0,0,1-1.37.23,6,6,0,0,1-1.46.15,1.24,1.24,0,0,1-1.18-.53.39.39,0,0,0-.34-.11.21.21,0,0,1-.24-.12c-.2-.35-.41-.75-.64-1.18a2.05,2.05,0,0,1-.15-1.48.51.51,0,0,1,0-.46c.1-.15.12-.28.05-.38a9.29,9.29,0,0,1,.78-1.33,4.69,4.69,0,0,1,1.18-1.26.74.74,0,0,0,.34-.3l.34-.53c.13-.2.2-.29.2-.27v.42s.06,0,.19-.23c.52-.66.86-1.1,1-1.33l.93-1.33a5.09,5.09,0,0,1,.53-.95,5.52,5.52,0,0,0,.54-.95c.2-.1.25-.23.15-.38S40.79,258.77,40.86,258.67Z" transform="translate(-15.45 -18.91)"/><path class="cls-1" d="M73.6,264.45q-.39.3-1.17,1c-.53.45-1.05.95-1.57,1.48l-1.56,1.56-1.17,1.14a32,32,0,0,0-4.89,5.78,4.39,4.39,0,0,0-.93,1.45,5.71,5.71,0,0,1-.73,1.37l-.34.61h0c0-.05,0-.07,0,0a3.32,3.32,0,0,1-.29.57,7.35,7.35,0,0,0-.59.76,2.81,2.81,0,0,0-.29.61c-.06.2-.13.42-.19.65s-.17.52-.3.87a13,13,0,0,0-1.12,1.56,5.69,5.69,0,0,0-.73,1.71,3.7,3.7,0,0,1-.59,1.11,1.83,1.83,0,0,0-.39,1.17c-.13.41-.26.61-.39.61a1.22,1.22,0,0,0-.59.31c-.46.25-.67.51-.63.76s-.18.43-.64.53a12.31,12.31,0,0,1-3.32.46,3.74,3.74,0,0,1-2.74-1.07,2,2,0,0,0-.54-.53c-.16-.1-.4-.28-.73-.53a2.65,2.65,0,0,1-.39-.73c-.13-.33-.16-.54-.1-.64a2.74,2.74,0,0,0,0-1.07c-.06-.1,0-.23.1-.38a1.39,1.39,0,0,0,.29-.61,15.29,15.29,0,0,1,.49-1.63c.2-.54.43-1.08.69-1.64.52-1.11,1-2.2,1.51-3.27s1-2.18,1.52-3.35c.65-1.42,1.2-2.62,1.66-3.61s.88-1.93,1.27-2.82.79-1.81,1.22-2.77,1-2.13,1.61-3.5l2.25-4.72,2.25-4.87a35.83,35.83,0,0,1,1.85-3.57A35.1,35.1,0,0,0,65.1,246l1-2.21c.2-.41.38-.75.54-1s.28-.47.34-.57c.33-.66.57-1.16.74-1.52a8.22,8.22,0,0,0,.44-1.37c.13-.25.32-.58.58-1a3.67,3.67,0,0,1,.78-.91,3.42,3.42,0,0,1,.93-.5l1-.34a5.8,5.8,0,0,1,1.71-.11c.81,0,1.42.06,1.81.11a2.78,2.78,0,0,1,1.51.57,10.34,10.34,0,0,1,1.13,1l.58.84a3.16,3.16,0,0,1,.3.57,2,2,0,0,1,.09.64v.38a2,2,0,0,1-.29,1l-.78,1.45c-.13.25-.28.51-.44.76a7.43,7.43,0,0,0-.44.76L75.46,247c-.33.61-.64,1.24-.93,1.9s-.61,1.32-.93,2a2,2,0,0,1-.54.84,2,2,0,0,0-.54.83c-.32.71-.67,1.4-1,2.06s-.7,1.27-1,1.82c-.72,1.48-1.35,2.7-1.9,3.69a17.36,17.36,0,0,0-.84,1.56q-.2.47-.39.84l-.39.91a.82.82,0,0,0,.39-.23c.2-.15.41-.33.64-.53a8.2,8.2,0,0,0,.59-.57,2.57,2.57,0,0,1,.34-.34c.58-.61,1.27-1.26,2-1.94s1.56-1.33,2.35-1.94,1.53-1.15,2.24-1.64a12.68,12.68,0,0,1,1.76-1l2.4-1.11a6.43,6.43,0,0,1,1.32-.34l1.27-.23a5.27,5.27,0,0,1,1.46.08q.78.15,2,.3a3.21,3.21,0,0,1,1.71.61,15.65,15.65,0,0,1,1.8,1.64,3.8,3.8,0,0,1,1,2.09v1A7.83,7.83,0,0,1,89,262.81c-.72,1.09-1.37,2-2,2.86s-1.21,1.61-1.67,2.24a20.34,20.34,0,0,0-1.27,2q-1.75,2.65-3.22,5.28a38.17,38.17,0,0,0-2.74,6.43,4.43,4.43,0,0,0-.29,1,1.4,1.4,0,0,0,.1.95.9.9,0,0,0,.73.46,3.53,3.53,0,0,0,1.71-.46,8.62,8.62,0,0,0,1.66-1c.72-.51,1.43-1.06,2.15-1.67s1.38-1.19,2-1.75l1.42-1.3,4.89-4.64c.39-.45.88-1,1.46-1.63s1.18-1.3,1.76-2,1.18-1.36,1.76-2,1.08-1.24,1.47-1.75a7.69,7.69,0,0,1,1-1,7.68,7.68,0,0,1,1.52-.6.76.76,0,0,1-.25.6,1.35,1.35,0,0,0-.34.61c.33-.1.52-.12.59-.07s.31,0,.34-.08a.61.61,0,0,1,.25-.3,4.1,4.1,0,0,0,.39-.35,1.81,1.81,0,0,1,.58-.34c.2.1.23.22.1.34s-.13.25,0,.35a5.18,5.18,0,0,0,.64.07,4.44,4.44,0,0,0,.73-.15,1.92,1.92,0,0,0,.29.46,3.14,3.14,0,0,0,.59.23v.38c.06,0,.16.12.29.38s0,.43-.24.53a2.57,2.57,0,0,0-.74.38.54.54,0,0,0,0,.49,1.79,1.79,0,0,1,.25.5.3.3,0,0,1,.1.38,4.23,4.23,0,0,1-.2.38,8.73,8.73,0,0,1-1,1.33l-1.41,1.64-1.42,1.59a11.2,11.2,0,0,0-1,1.22,3,3,0,0,1-.34.46c-.1.1-.21.23-.34.38A25.32,25.32,0,0,1,97.4,278c-.75.71-1.45,1.4-2.11,2.05-1,1-2,2-3,2.9s-2.15,1.8-3.32,2.66a1.13,1.13,0,0,0-.58.3.71.71,0,0,1-.39.57l-.69.27a1.07,1.07,0,0,0-.49.27c-.13.12-.26.24-.39.34-.65.4-1.29.76-1.9,1.06s-1.29.66-2,1.07a7.43,7.43,0,0,1-1.22.42,10.63,10.63,0,0,1-1.61.26l-1.66.16c-.53,0-1,.07-1.37.07H74.38a3.29,3.29,0,0,1-1.95-.61L71.35,289a3.08,3.08,0,0,1-1.56-1.63,12.17,12.17,0,0,1-.59-2.1,7.41,7.41,0,0,1-.19-1.71,7.53,7.53,0,0,1,.19-1.71,15.71,15.71,0,0,1,.93-3.23c.42-1,.89-2.15,1.42-3.31a37.33,37.33,0,0,1,2.93-5.63,46.6,46.6,0,0,1,3.61-4.87,9.62,9.62,0,0,0,1.42-2.06c.36-.71.44-1.2.25-1.48s-.77-.21-1.71.19A24.61,24.61,0,0,0,73.6,264.45Z" transform="translate(-15.45 -18.91)"/><path class="cls-1" d="M102.53,274.26a19,19,0,0,0-1.71,3.62,10.52,10.52,0,0,0-.74,3.53,5.37,5.37,0,0,0,.39,2,1.36,1.36,0,0,0,1.08.84,11,11,0,0,0,1.66.3h1.61a8.09,8.09,0,0,0,1.71-.15,47.08,47.08,0,0,0,8.21-3.5,29.07,29.07,0,0,0,4-2.62q2-1.56,3.91-3.2t3.57-3.23c1.1-1.07,2.08-2,2.93-2.74a9.82,9.82,0,0,0,.78-.72l1-1c.35-.36.7-.71,1-1.07s.59-.63.79-.83a5.44,5.44,0,0,1,.63-.57,1.12,1.12,0,0,1,.83-.12c0,.05,0,0,.05-.11a1,1,0,0,1,.15-.34.88.88,0,0,1,.24-.27c.1-.08.21-.06.34,0a1.42,1.42,0,0,0,.79.07.56.56,0,0,1,.29.16,2.31,2.31,0,0,1,.88-.31.67.67,0,0,1,.88.53.22.22,0,0,0,.09.16l.2.15c.06.1.13.21.2.34a.38.38,0,0,1-.1.42l.29.11a.75.75,0,0,0,.29,0L136.83,269c0,.05.06.08.2.08s.16.07.09.23a10.22,10.22,0,0,1-1.76,2.51,85.47,85.47,0,0,1-6.25,6.27,64.37,64.37,0,0,1-7.77,6.09,49.82,49.82,0,0,1-8.65,4.64,25.46,25.46,0,0,1-8.89,2c-.46,0-1.27,0-2.45-.08a19.31,19.31,0,0,1-2.54-.23,11.09,11.09,0,0,1-2.34-.57,7.2,7.2,0,0,1-2-1,8.06,8.06,0,0,1-1.46-1.3,9.42,9.42,0,0,1-1.18-1.6,1.51,1.51,0,0,1-.24-.64,1,1,0,0,0-.25-.57A6.52,6.52,0,0,1,90.9,283a8.62,8.62,0,0,1,0-1.9,3.33,3.33,0,0,0,.19-1.37c.07-.41.13-.8.2-1.18a8.1,8.1,0,0,1,.29-1.18,4.3,4.3,0,0,0,.29-1,4.71,4.71,0,0,1,.3-1l1.36-3.81a67.33,67.33,0,0,1,4.11-6.35,40.47,40.47,0,0,1,5-5.67,31.13,31.13,0,0,1,6.11-4.41,24.67,24.67,0,0,1,7.43-2.59,15.79,15.79,0,0,1,2.59.08,3.92,3.92,0,0,1,2.2.76,2.46,2.46,0,0,1,1.27.84,4.6,4.6,0,0,1,1.66,3,4.14,4.14,0,0,1,.19,1.75,11.79,11.79,0,0,1-.39,1.91.81.81,0,0,0-.39.6,35.84,35.84,0,0,1-4.93,7.57,26.67,26.67,0,0,1-7.77,5.9,7.57,7.57,0,0,1-2.2.72,12.37,12.37,0,0,1-3,0,.48.48,0,0,1-.2,0,1,1,0,0,0-.29,0c-.13,0-.18,0-.15,0s0-.09-.14-.19a1.79,1.79,0,0,1-1-.5,2.3,2.3,0,0,0-.93-.57Zm2.54-5a2.89,2.89,0,0,1,.09.34s0,0,0,0l.1,0s.11.07.25.22a.63.63,0,0,0,.19,0,.75.75,0,0,1,.29,0h.3a10.6,10.6,0,0,0,5-2.89c1.3-1.37,2.48-2.72,3.52-4a3.49,3.49,0,0,0,.64-1.06,2.45,2.45,0,0,1,.53-.91,1.3,1.3,0,0,0,.1-.54,1.4,1.4,0,0,0-.15-.61.69.69,0,0,0-.48-.38,2.05,2.05,0,0,0-1,.16c-.72.35-1.27.64-1.66.87a9.18,9.18,0,0,0-1.37,1c-1.11.91-1.89,1.6-2.35,2.05s-.81.83-1.07,1.11a9.89,9.89,0,0,0-.73.87,16.17,16.17,0,0,1-1.23,1.37,1,1,0,0,0-.44.57,1.16,1.16,0,0,1-.34.57.87.87,0,0,1-.1.42.68.68,0,0,0,0,.49c0-.1,0-.07,0,.08A1.47,1.47,0,0,0,105.07,269.24Zm31-4.79c0,.1,0,.1.1,0Z" transform="translate(-15.45 -18.91)"/><path class="cls-1" d="M169,267.11a1.55,1.55,0,0,0,.88.12,1.47,1.47,0,0,1,.88.11c.33-.1.54-.09.64,0a1.82,1.82,0,0,0,.34.34,2.53,2.53,0,0,1,.19.76c0,.15.13.28.4.38s.19.2,0,.3-.27.21-.2.31a4.36,4.36,0,0,0,.2.8.81.81,0,0,1-.1.64c-.26.46-.49.89-.69,1.3a6.22,6.22,0,0,1-.78,1.22c-.33.35-.65.72-1,1.1s-.65.77-1,1.18a6.85,6.85,0,0,1-.78.91c-.4.41-.82.84-1.28,1.29l-1.27,1.3a6.85,6.85,0,0,0-.78.91c-.45.46-.85.84-1.17,1.14l-.93.88a8.93,8.93,0,0,1-1,.8c-.36.25-.76.55-1.22.91a9,9,0,0,0-.73.64,4,4,0,0,1-.73.58c-.85.55-1.6,1.09-2.25,1.59s-1.4,1-2.25,1.6a6.13,6.13,0,0,0-1.07.69,3.81,3.81,0,0,1-1.28.6c-.52.31-1,.57-1.46.8a12.88,12.88,0,0,1-1.56.65c-.4.15-.71.27-.93.34l-.64.23c-.19.08-.42.15-.68.23l-1.18.34c-2.67.36-4.67.2-6-.46a8,8,0,0,1-3.27-3,10.32,10.32,0,0,1-.2-4,12.29,12.29,0,0,1,1.18-3.77c.32-.76.66-1.49,1-2.2a16.11,16.11,0,0,1,1.32-2.14,13.76,13.76,0,0,0,1-1.59,14.64,14.64,0,0,1,1.47-2.4c.45-.58,1-1.33,1.56-2.24a23.69,23.69,0,0,0,1.66-2c.46-.63,1-1.33,1.57-2.09a5.21,5.21,0,0,1,1.27-1.41c.71-.63,1.33-1.22,1.85-1.75s.78-.92.78-1.18-.62-.15-1.85.31l-1.47.41-1.81.54c-.62.17-1.2.33-1.76.45a6,6,0,0,1-1.32.19,1,1,0,0,0-.44.23l-.34.38q-1.56,2-3.08,3.69c-1,1.14-2.06,2.42-3.17,3.84A8.09,8.09,0,0,1,134,273a3.58,3.58,0,0,1-2,.34h-.49a2,2,0,0,1-.68-.15,1.49,1.49,0,0,1-.54-.5,2.46,2.46,0,0,0-.73-.64c-.13-.05-.17-.12-.1-.19a.22.22,0,0,0,0-.27.18.18,0,0,1,.05-.27c.1-.07.08-.14-.05-.19.13-.1.15-.25.05-.45a.46.46,0,0,1,0-.54l.44-.34a.33.33,0,0,0,.05-.49,3.89,3.89,0,0,0,.39-.5l.68-1c.26-.38.5-.74.73-1.1a8.18,8.18,0,0,1,.54-.76c.33-.51.6-.91.83-1.22s.42-.57.59-.8.21-.34.14-.34a1.09,1.09,0,0,0-.63,0c-.29.08-.44.06-.44,0a5.33,5.33,0,0,1-2.74-.34,6.61,6.61,0,0,1-2.15-1,7.07,7.07,0,0,0-.73-1.06,2,2,0,0,1-.54-1.15,3.91,3.91,0,0,1,0-1.74,5.77,5.77,0,0,1,.69-1.83c.26-.41.47-.72.63-.95a6.83,6.83,0,0,1,.44-.57c.13-.15.29-.33.49-.54a10.29,10.29,0,0,0,.78-.91,6.62,6.62,0,0,1,1.76-1.06,14.37,14.37,0,0,0,2-.92,5.09,5.09,0,0,1,.68-.11,1,1,0,0,0,.68-.34,17.91,17.91,0,0,1,4.5-.46,7.25,7.25,0,0,1,3.32.8,3.07,3.07,0,0,1,1.57,2,5,5,0,0,1-.69,3.24l-.1.07c-.06,0-.09,0-.09.08a.62.62,0,0,0,.49.23,20,20,0,0,0,2.63-.76c1.37-.46,2.87-.89,4.5-1.3s3.18-.72,4.64-.95a5.4,5.4,0,0,1,3.08.12,11.17,11.17,0,0,0,1.12.64,3.22,3.22,0,0,1,.93.69,2.75,2.75,0,0,1,.59,1,4.67,4.67,0,0,1,.19,1.48v.84a7.06,7.06,0,0,1-1.22,3.19c-.68,1-1.38,2-2.1,2.89a16.73,16.73,0,0,1-2.73,3.24,26.79,26.79,0,0,0-3,3.38,8.39,8.39,0,0,0-.59.88c-.13.23-.26.44-.39.64s-.28.42-.44.65l-.64.88-1.07,1.52c-.33.45-.65.94-1,1.44s-.67,1.07-1,1.68a22.18,22.18,0,0,0-1.12,2.28c-.72,1.12-1,1.9-.78,2.36a1.23,1.23,0,0,0,1.22.72,5.84,5.84,0,0,0,2.25-.46,7,7,0,0,0,2.2-1.25c.58-.41,1.28-.91,2.1-1.52s1.61-1.24,2.39-1.9,1.52-1.3,2.2-1.91a10.18,10.18,0,0,0,1.52-1.59c.65-.61,1.48-1.44,2.49-2.48s1.87-1.91,2.59-2.62a18.69,18.69,0,0,0,1.71-1.56,11.6,11.6,0,0,1,1.71-1.48,1.83,1.83,0,0,1,.59-.54A.94.94,0,0,1,169,267.11Zm-32-11.56a2.71,2.71,0,0,1-.63-.27c-.23-.13-.57.06-1,.57-.39.3-.57.46-.53.46a3.4,3.4,0,0,1-.35.76,1.52,1.52,0,0,0-.34.91.61.61,0,0,0,.34.46,1.62,1.62,0,0,0,.74.15H136a16.76,16.76,0,0,0,1.12-2C137.37,255.94,137.35,255.6,137,255.55Z" transform="translate(-15.45 -18.91)"/><path class="cls-1" d="M205.63,267.11a1.53,1.53,0,0,0,.88.12,1.47,1.47,0,0,1,.88.11c.33-.1.54-.09.64,0a1.82,1.82,0,0,0,.34.34,2.53,2.53,0,0,1,.19.76c0,.15.13.28.39.38s.2.2,0,.3-.26.21-.19.31a5.61,5.61,0,0,0,.19.8.77.77,0,0,1-.09.64c-.26.46-.49.89-.69,1.3a6.22,6.22,0,0,1-.78,1.22c-.33.35-.65.72-1,1.1s-.65.77-1,1.18a8.08,8.08,0,0,1-.79.91c-.39.41-.81.84-1.27,1.29s-.88.89-1.27,1.3a6.85,6.85,0,0,0-.78.91q-.69.69-1.17,1.14l-.93.88a8.93,8.93,0,0,1-1,.8c-.36.25-.76.55-1.22.91a9,9,0,0,0-.73.64,4,4,0,0,1-.74.58c-.84.55-1.59,1.09-2.24,1.59s-1.4,1-2.25,1.6A6.62,6.62,0,0,0,190,289a3.75,3.75,0,0,1-1.27.6c-.52.31-1,.57-1.46.8a12.41,12.41,0,0,1-1.57.65c-.39.15-.7.27-.92.34l-.64.23c-.19.08-.42.15-.68.23l-1.18.34c-2.67.36-4.67.2-6-.46a8,8,0,0,1-3.27-3,10.32,10.32,0,0,1-.2-4,12.29,12.29,0,0,1,1.18-3.77c.32-.76.66-1.49,1-2.2a16.11,16.11,0,0,1,1.32-2.14,13.76,13.76,0,0,0,1-1.59,14.64,14.64,0,0,1,1.47-2.4c.45-.58,1-1.33,1.56-2.24a23.69,23.69,0,0,0,1.66-2c.46-.63,1-1.33,1.56-2.09a5.31,5.31,0,0,1,1.28-1.41c.71-.63,1.33-1.22,1.85-1.75s.78-.92.78-1.18-.62-.15-1.85.31l-1.47.41-1.81.54c-.62.17-1.2.33-1.76.45a6,6,0,0,1-1.32.19,1,1,0,0,0-.44.23l-.34.38q-1.56,2-3.08,3.69t-3.17,3.84a8.74,8.74,0,0,1-1.57,1.11,3.58,3.58,0,0,1-1.95.34h-.49a1.91,1.91,0,0,1-.68-.15,1.49,1.49,0,0,1-.54-.5,2.46,2.46,0,0,0-.73-.64c-.14-.05-.17-.12-.1-.19a.22.22,0,0,0,0-.27.18.18,0,0,1,0-.27c.09-.07.08-.14,0-.19.13-.1.14-.25,0-.45a.45.45,0,0,1,.05-.54l.44-.34c.16-.12.17-.29,0-.49a3,3,0,0,0,.4-.5l.68-1c.26-.38.5-.74.73-1.1a8.18,8.18,0,0,1,.54-.76c.32-.51.6-.91.83-1.22s.42-.57.59-.8.21-.34.14-.34a1.09,1.09,0,0,0-.63,0c-.29.08-.44.06-.44,0a5.33,5.33,0,0,1-2.74-.34,6.61,6.61,0,0,1-2.15-1,7.07,7.07,0,0,0-.73-1.06,2,2,0,0,1-.54-1.15,3.91,3.91,0,0,1,0-1.74,5.77,5.77,0,0,1,.69-1.83c.26-.41.47-.72.63-.95a6.83,6.83,0,0,1,.44-.57c.13-.15.29-.33.49-.54s.45-.5.78-.91a6.62,6.62,0,0,1,1.76-1.06,13.83,13.83,0,0,0,2-.92,5.56,5.56,0,0,1,.69-.11,1,1,0,0,0,.68-.34,17.91,17.91,0,0,1,4.5-.46,7.25,7.25,0,0,1,3.32.8,3.07,3.07,0,0,1,1.57,2,5,5,0,0,1-.69,3.24l-.1.07c-.06,0-.09,0-.09.08a.62.62,0,0,0,.48.23,20,20,0,0,0,2.64-.76c1.37-.46,2.87-.89,4.5-1.3s3.17-.72,4.64-.95a5.4,5.4,0,0,1,3.08.12,10.16,10.16,0,0,0,1.12.64,3.22,3.22,0,0,1,.93.69,2.75,2.75,0,0,1,.59,1,4.67,4.67,0,0,1,.19,1.48v.84A7.06,7.06,0,0,1,197,262c-.68,1-1.38,2-2.1,2.89a16.83,16.83,0,0,1-2.74,3.24,28.44,28.44,0,0,0-3,3.38,9.85,9.85,0,0,0-.58.88c-.13.23-.26.44-.39.64s-.28.42-.44.65l-.64.88L186,276.09c-.33.45-.65.94-1,1.44s-.67,1.07-1,1.68a22.18,22.18,0,0,0-1.12,2.28c-.72,1.12-1,1.9-.78,2.36a1.23,1.23,0,0,0,1.22.72,5.84,5.84,0,0,0,2.25-.46,7,7,0,0,0,2.2-1.25c.58-.41,1.28-.91,2.1-1.52s1.61-1.24,2.39-1.9,1.52-1.3,2.2-1.91a10.67,10.67,0,0,0,1.52-1.59c.65-.61,1.48-1.44,2.49-2.48s1.87-1.91,2.59-2.62a18.69,18.69,0,0,0,1.71-1.56,11.6,11.6,0,0,1,1.71-1.48,1.94,1.94,0,0,1,.58-.54A1,1,0,0,1,205.63,267.11Zm-32-11.56a2.71,2.71,0,0,1-.63-.27c-.23-.13-.57.06-1,.57a2.7,2.7,0,0,0-.54.46s-.08.25-.34.76a1.52,1.52,0,0,0-.34.91.61.61,0,0,0,.34.46,1.61,1.61,0,0,0,.73.15h.74a16.76,16.76,0,0,0,1.12-2C174,255.94,174,255.6,173.67,255.55Z" transform="translate(-15.45 -18.91)"/><path class="cls-1" d="M244.14,292.07a17.26,17.26,0,0,1,3.22.6,6.2,6.2,0,0,1,2.64,1.52,1.34,1.34,0,0,1,.24.23l.15.16a1.55,1.55,0,0,1,0,.34.45.45,0,0,0,0,.34.85.85,0,0,0,.1.46,2.13,2.13,0,0,1-.44.26,1.16,1.16,0,0,0-.44.42,1,1,0,0,0-.1.53.26.26,0,0,1-.29.12c-.13,0-.2,0-.2.11a.92.92,0,0,1-.53.31c-.23,0-.31.17-.25.38l-.1.07a4.23,4.23,0,0,0-1.12.19,2.56,2.56,0,0,1-1.32,0,11,11,0,0,0-1.51,0c-.49,0-1,0-1.52,0l-7.43.31c-1.36.1-2.73.21-4.1.34s-2.74.24-4.11.34l-2.88.3-2.78.31a4.55,4.55,0,0,0-.74,0,4.19,4.19,0,0,0-.53.11,1.39,1.39,0,0,0-.69.69c-.19.35-.36.63-.49.83a21.52,21.52,0,0,1-2.1,2.78q-1.12,1.26-2.49,2.85a14.82,14.82,0,0,1-1.71,1.83c-.62.56-1.22,1.11-1.81,1.67a7.35,7.35,0,0,1-1.12,1.11,8.66,8.66,0,0,0-1.13,1l-3,2.36c-1,.71-2.13,1.4-3.27,2.06s-2.27,1.26-3.37,1.82l-2,.76c-.13.1-.19.13-.19.08q-.39-.15-.39.15a1.38,1.38,0,0,0-.3.15.31.31,0,0,1-.19.08,2.7,2.7,0,0,0-1.08.07,7.83,7.83,0,0,0-1.17.42,9.73,9.73,0,0,1-1.37.5l-.78.3a1,1,0,0,1-.59.15c-.45.05-.89.12-1.32.19l-1.41.27a3.52,3.52,0,0,1-.83,0,2.35,2.35,0,0,0-.74,0,10.88,10.88,0,0,1-1.36.07h-1.67c-.58,0-1.15,0-1.71-.07s-1-.08-1.32-.08a8.59,8.59,0,0,1-3.42-.68,6.33,6.33,0,0,1-2.24-.84l-1.76-1a12.63,12.63,0,0,1-2.94-3.2,8.78,8.78,0,0,1-1.17-4.1,6.75,6.75,0,0,1,.59-2.82,9,9,0,0,1,1.32-2.36,17,17,0,0,1,1.81-2,16.31,16.31,0,0,1,3.32-2.51c.72-.4,1.42-.76,2.1-1.06s1.38-.61,2.1-.91l3.52-1.07a14.45,14.45,0,0,1,1.76-.49l1.76-.42c.58-.1,1.2-.24,1.85-.42a17.61,17.61,0,0,1,2-.42c.85-.15,1.68-.32,2.49-.49s1.61-.32,2.4-.42l2.63-.46,3-.3a1.76,1.76,0,0,0,.49-.16c.46-.05.88-.08,1.27-.11a10.34,10.34,0,0,0,1.37-.19l8.31-1.14c.39-.05.54-.05.44,0s-.05-.05.15-.31a.89.89,0,0,0,.09-.45,6.19,6.19,0,0,1,.49-.91,5.87,5.87,0,0,0,.49-.92c.13-.3.24-.61.34-.91s.21-.61.34-.91l.49-1.3.39-.83a1.84,1.84,0,0,0,.05-.73,2.36,2.36,0,0,1,.15-1l.29-.76c-.13,0-.1-.17.1-.53s.26-.51.2-.46c-.27.26-.59.55-1,.88s-.82.67-1.27,1-.9.68-1.32,1-.8.56-1.13.77a16.41,16.41,0,0,1-4.88,2.13,4.37,4.37,0,0,0-.88.3c-1.11.1-2.2.16-3.28.19a6.58,6.58,0,0,1-3.27-.87c-.32-.26-.63-.52-.93-.8a4,4,0,0,1-.73-.95q-.19-.39-.39-.84a2.34,2.34,0,0,1-.2-.91c0-.21,0-.31-.05-.31s-.08-.08-.14-.23a17,17,0,0,1,.19-3.57A20.77,20.77,0,0,1,199,278.1c.56-1.34,1.13-2.7,1.71-4.07s1.36-2.87,2.11-4.22l2.29-4.14L206,264c.26-.48.51-.95.73-1.41s.46-.92.69-1.41.5-1,.83-1.71a7.46,7.46,0,0,0,.59-2.81,1.14,1.14,0,0,0,.09-.42.43.43,0,0,1,.2-.34,2.92,2.92,0,0,0,.29-.54,1.68,1.68,0,0,1,.3-.45c.52-.1,1-.22,1.41-.34a7.36,7.36,0,0,1,1.32-.27,2.37,2.37,0,0,1,1.66,0l1,.23a2.54,2.54,0,0,1,1.56,1,5.87,5.87,0,0,1,1,1.86,3.47,3.47,0,0,1,0,2,9.2,9.2,0,0,1-.63,2c-.3.66-.57,1.3-.83,1.91q-.3.68-.54,1.14a4.3,4.3,0,0,1-.54.8c-.19.23-.39.48-.59.76s-.42.64-.68,1.1l-3.42,6.47c-.39.71-.72,1.34-1,1.9l-.73,1.6c-.23.5-.46,1.05-.68,1.63s-.51,1.26-.83,2c-.53,1.22-.49,1.95.09,2.21s1.4,0,2.45-.77a8.13,8.13,0,0,0,.73-.49l.39-.3.34-.27c.13-.1.36-.25.69-.46.71-.61,1.41-1.19,2.1-1.75s1.35-1.14,2-1.75a22,22,0,0,0,3-2.62c.94-1,1.78-1.94,2.49-2.85s1.49-1.89,2.11-2.78,1.28-1.81,2-2.78a5.35,5.35,0,0,0,1.12-1.75,6.19,6.19,0,0,1,1-1.75l1.76-3.12a16,16,0,0,0,.68-1.48,9.64,9.64,0,0,1,.78-1.48,1,1,0,0,0,.3-.42,1.49,1.49,0,0,1,.29-.5,1.31,1.31,0,0,0,.49-.68,2.16,2.16,0,0,1,1.56-1.14,3.9,3.9,0,0,0,1.13-.27,9.19,9.19,0,0,0,.83-.42l2.44.23a1.07,1.07,0,0,1,1,.46,1.4,1.4,0,0,1,.34.38,1.57,1.57,0,0,0,.34.38,2.74,2.74,0,0,1,.69,1.37,4.26,4.26,0,0,1-.1,1.52,11.62,11.62,0,0,1-1.42,3,20.43,20.43,0,0,0-1.61,2.93l-.78,1.22a10.76,10.76,0,0,0-.69,1.22c-.45.86-.93,1.72-1.41,2.58s-1,1.75-1.42,2.67c-.59,1.11-1.21,2.24-1.86,3.38s-1.24,2.3-1.76,3.46c-.26.51-.52,1-.78,1.49a6.21,6.21,0,0,0-.59,1.56,8.82,8.82,0,0,0-1,2.47,11.66,11.66,0,0,1-.79,2.4q-.68,1.67-1.17,2.85c-.33.79-.68,1.76-1.07,2.93a2.51,2.51,0,0,1-.39.91c-.27.46-.33.69-.2.69l-.2.45,3.91-.45c1.31-.16,2.61-.28,3.91-.38Zm-35.38,9.43a.58.58,0,0,0-.54,0,1.9,1.9,0,0,1-.63.11,11.38,11.38,0,0,1-2,.27c-.91.08-1.63.17-2.15.27s-.77.19-1.12.26-.7.14-1,.19l-3.81.54c-.72.1-1.43.22-2.15.38l-2.15.45a22.59,22.59,0,0,0-2.54.46c-.85.2-1.69.43-2.54.68a11.38,11.38,0,0,0-2.35.84,14.12,14.12,0,0,1-2.34.91l-.69.38-.88.61-1.07.84-.54.42a1.68,1.68,0,0,0-.44.57,2.33,2.33,0,0,0-.39,2.59,2.71,2.71,0,0,0,2.05,1.9,10.6,10.6,0,0,0,3.13.61,16.57,16.57,0,0,0,4.89-.31,2.4,2.4,0,0,1,.78-.3,3.88,3.88,0,0,1,.88-.15l2.64-1.07a3.16,3.16,0,0,0,1.07-.49,4.55,4.55,0,0,1,1.17-.57,4.2,4.2,0,0,0,1.13-.5,4.28,4.28,0,0,1,1-.49,3.63,3.63,0,0,1,.54-.35l.83-.41,2.4-1.75a22.74,22.74,0,0,0,2.29-2,10.57,10.57,0,0,1,1.57-1.41,6.9,6.9,0,0,0,1.37-1.33Z" transform="translate(-15.45 -18.91)"/><path class="cls-1" d="M311.47,292.07c1.11.1,2.18.24,3.23.41a4.78,4.78,0,0,1,2.64,1.34.64.64,0,0,1,.24.41.57.57,0,0,0,.15.35,1.55,1.55,0,0,1-.05.34.37.37,0,0,0,.05.34,1,1,0,0,0,.09.46,1.89,1.89,0,0,1-.44.26,1.07,1.07,0,0,0-.43.42,1,1,0,0,0-.1.53.29.29,0,0,1-.3.12c-.13,0-.19,0-.19.11s-.2.26-.2.31a2.66,2.66,0,0,0,.1.38l-.1.07a9.18,9.18,0,0,0-1.46.19,4.09,4.09,0,0,1-1.66,0,11.19,11.19,0,0,0-1.52,0c-.49,0-1,0-1.51,0l-7.43.31c-1.37.1-2.74.21-4.11.34s-2.73.24-4.1.34c-.85.05-1.66.11-2.44.19s-1.57.16-2.35.27l-.1.3a1.22,1.22,0,0,0-.73.65l-.54.87a21.52,21.52,0,0,1-2.1,2.78q-1.12,1.26-2.49,2.85a14.82,14.82,0,0,1-1.71,1.83c-.62.56-1.22,1.11-1.81,1.67a7.35,7.35,0,0,1-1.12,1.11,8.66,8.66,0,0,0-1.13,1l-3,2.36c-1,.71-2.13,1.4-3.27,2.06s-2.27,1.26-3.37,1.82l-2,.76c-.13.1-.19.13-.19.08q-.39-.15-.39.15a1.38,1.38,0,0,0-.3.15.31.31,0,0,1-.19.08,2.7,2.7,0,0,0-1.08.07,7.83,7.83,0,0,0-1.17.42,9.73,9.73,0,0,1-1.37.5l-.78.3a1,1,0,0,1-.59.15c-.45.05-.89.12-1.32.19l-1.41.27a3.54,3.54,0,0,1-.83,0,2.35,2.35,0,0,0-.74,0,10.94,10.94,0,0,1-1.37.07h-1.66c-.58,0-1.15,0-1.71-.07s-1-.08-1.32-.08a8.59,8.59,0,0,1-3.42-.68,6.33,6.33,0,0,1-2.24-.84l-1.76-1a12.63,12.63,0,0,1-2.94-3.2,8.78,8.78,0,0,1-1.17-4.1,6.75,6.75,0,0,1,.59-2.82,8.67,8.67,0,0,1,1.32-2.36,18.74,18.74,0,0,1,5.13-4.49c.72-.4,1.42-.76,2.1-1.06s1.38-.61,2.1-.91l3.52-1.07a14,14,0,0,1,1.76-.49l1.76-.42c.58-.1,1.2-.24,1.85-.42a17.61,17.61,0,0,1,2-.42c.85-.15,1.68-.32,2.49-.49s1.61-.32,2.39-.42l2.64-.46,3-.3a1.76,1.76,0,0,0,.49-.16c.46-.05.88-.08,1.27-.11a10.34,10.34,0,0,0,1.37-.19l1.17-.15a2.78,2.78,0,0,1,.69-.19,2.51,2.51,0,0,0,.49-.12c.78-.1,1.56-.19,2.34-.26s1.57-.17,2.35-.27l.39-.07a7.08,7.08,0,0,0,1.17-.16l.2-.23A.86.86,0,0,1,283,294a.26.26,0,0,0,.1-.23c.13-.26.26-.48.39-.69s.26-.43.39-.68h-.1c.07-.15.13-.3.2-.46s.13-.33.19-.53l.59-1.29a.17.17,0,0,1,0-.12.13.13,0,0,0,.05-.11c.32-.71.6-1.36.83-1.94a12.52,12.52,0,0,0,.44-1.26,3.14,3.14,0,0,1,.34-.8,7.87,7.87,0,0,0,.44-.87,1.13,1.13,0,0,0,.25-.5,1.66,1.66,0,0,1,.24-.57.62.62,0,0,0-.29.23.94.94,0,0,1-.2.23c-1,.56-2,1.12-2.83,1.67s-1.7,1.07-2.54,1.53l-1.23.68a9.33,9.33,0,0,1-1.22.57,13.15,13.15,0,0,1-1.71.53c-.68.18-1.61.4-2.78.65a9,9,0,0,1-1.91.11l-1.9,0c-.14,0-.2,0-.2,0s0,0-.1,0a4.56,4.56,0,0,0-1.27-.34,5.48,5.48,0,0,1-.83-.12,3.37,3.37,0,0,1-.68-.22,2.68,2.68,0,0,1-.83-.69.58.58,0,0,1-.3-.23,1.15,1.15,0,0,0-.29-.3,13.59,13.59,0,0,0-1-1.1,2.79,2.79,0,0,1-.68-1.34,7.46,7.46,0,0,1-.25-2.93c.1-1.19.18-2.14.25-2.85a10.75,10.75,0,0,1,.63-2.13,11,11,0,0,0,.64-2,6.53,6.53,0,0,1,.63-1.63l.84-1.49a8.37,8.37,0,0,1,.53-1.67,8.55,8.55,0,0,1,.83-1.44c1.31-1.83,2.51-3.43,3.62-4.8a22.69,22.69,0,0,1,4.4-4,17.25,17.25,0,0,1,5-3.31,31.24,31.24,0,0,1,6-1.94h2.59a4.19,4.19,0,0,1,.88.08,6.27,6.27,0,0,1,.83.26l1.47.57a2.4,2.4,0,0,1,.83.65l.54.65a1.38,1.38,0,0,1,.68.64,6.72,6.72,0,0,1,.54,1.14c.16.44.31.84.44,1.22a3,3,0,0,1,.19.88,7.22,7.22,0,0,0,.59-.92c.26-.45.54-.95.83-1.48a13.83,13.83,0,0,0,.73-1.52c.2-.48.33-.8.4-.95a1.4,1.4,0,0,1,.53.23c0,.05.21-.05.54-.31a.41.41,0,0,1,.49-.34c.26,0,.39-.12.39-.42h.2a6.25,6.25,0,0,0,1.46.12,4,4,0,0,1,1.27.11,1.94,1.94,0,0,1,.83.87c.1.28.41.52.93.73.13.25.26.52.39.8a1.66,1.66,0,0,1,.2.57.8.8,0,0,1,.1.41.5.5,0,0,1-.2.42,2,2,0,0,1-.29,1.07,1.88,1.88,0,0,0-.3,1.06c0,.11-.06.19-.19.27s-.13.16,0,.27c-.39,1.06-.77,2.1-1.13,3.12a12.13,12.13,0,0,1-1.41,2.81c-.33.56-.62,1.12-.88,1.67s-.52,1.15-.78,1.75a17.17,17.17,0,0,0-1,2.4,13.11,13.11,0,0,1-1.12,2.4,17.3,17.3,0,0,0-.88,1.9c-.27.66-.53,1.32-.79,2s-.65,1.43-1,2.16a13.59,13.59,0,0,0-.79,2.33,26.41,26.41,0,0,1-1,2.77c-.56,1.35-1.09,2.63-1.61,3.84-.07.21-.17.51-.3.92s-.13.61,0,.61l-.09.15,2.73-.27c.91-.07,1.82-.16,2.74-.26Zm-33.42,9.58a.58.58,0,0,0-.54,0,1.93,1.93,0,0,1-.63.12,12.63,12.63,0,0,1-2,.23,17.12,17.12,0,0,0-2.15.22l-2.15.38-3.81.54c-.72.1-1.43.22-2.15.38l-2.15.45a22.59,22.59,0,0,0-2.54.46c-.85.2-1.7.43-2.54.68a18.75,18.75,0,0,0-2.89,1c-1.2.51-2.13.87-2.78,1.07l-.69.38-.87.61-1.28,1.06-.53.42a1.66,1.66,0,0,0-.44.57,2.31,2.31,0,0,0-.39,2.59,2.71,2.71,0,0,0,2.05,1.9,10.28,10.28,0,0,0,3.13.61,8.4,8.4,0,0,0,2.24,0c.72-.1,1.5-.23,2.35-.38a2.18,2.18,0,0,1,.54-.23c.29-.1.62-.2,1-.3s.69-.19,1-.27a2.62,2.62,0,0,1,.64-.11l2.64-1.07a3.25,3.25,0,0,0,1.07-.49,4.55,4.55,0,0,1,1.17-.57,4.2,4.2,0,0,0,1.13-.5,4.28,4.28,0,0,1,1-.49,3.63,3.63,0,0,1,.54-.35c.23-.12.5-.26.83-.41.78-.56,1.55-1.08,2.3-1.56a14.17,14.17,0,0,0,2.2-1.79,14.41,14.41,0,0,1,1.46-1.56q.78-.72,1.47-1.41Zm-4.3-20q.58,1.75,2.1,1.56a8.92,8.92,0,0,0,3.37-1.29,24.88,24.88,0,0,0,3.57-2.59c1.14-1,2-1.74,2.69-2.24s1.31-1.17,1.8-1.68a10.1,10.1,0,0,0,1.27-1.56c.36-.53.74-1.1,1.13-1.71s.84-1.32,1.37-2.13a12.81,12.81,0,0,1,.88-1.71,4.21,4.21,0,0,0,.68-1.94,3.21,3.21,0,0,0-.15-1c-.09-.3-.18-.58-.24-.84a1.53,1.53,0,0,0-.83-1.18c-.43-.17-.8-.31-1.13-.41a2.26,2.26,0,0,1-.88-.16,1.59,1.59,0,0,0-1,0c-.65.16-1.19.31-1.62.46a6,6,0,0,0-1.22.61c-.39.25-.81.56-1.27.91s-1,.84-1.66,1.45a11.69,11.69,0,0,0-3,3c-.78,1.14-1.43,2.15-1.95,3a5.3,5.3,0,0,0-.69.87,6.62,6.62,0,0,1-.44.69,6.71,6.71,0,0,0-.49.84c-.16.33-.4.79-.73,1.4a18.6,18.6,0,0,0-1.07,2.89A10.11,10.11,0,0,0,273.75,281.64Z" transform="translate(-15.45 -18.91)"/><path class="cls-1" d="M328.48,253a5.83,5.83,0,0,1,1.12-.54L331,252c.32-.1.65-.21,1-.34a3.21,3.21,0,0,1,1.18-.19h.68a1,1,0,0,0,.59-.23h.1a11.88,11.88,0,0,1,2.34.08,2.27,2.27,0,0,1,1.27.07,7.09,7.09,0,0,1,1.08.38c.71.31,1.35.61,1.9.92a4.06,4.06,0,0,1,1.42,1.29,7.8,7.8,0,0,1,1.42,3,15.51,15.51,0,0,1,.34,3.12,36.13,36.13,0,0,1-1.17,4.87,25.65,25.65,0,0,1-4.11,7.61l-.39.38c-.19.2-.39.43-.59.68s-.39.5-.58.73-.3.36-.3.41.35,0,.83,0a16,16,0,0,0,1.62-.35l2.34-.6c.78-.31,1.45-.6,2-.88a7.35,7.35,0,0,0,1.46-.95c.43-.35.85-.72,1.27-1.1s.93-.8,1.52-1.26a27.25,27.25,0,0,1,2.25-2.39q1.36-1.34,2.34-2.4l1-.69h.1c-.27-.3-.27-.5,0-.61-.07-.1,0,0,.14.16s.28.3.34.3c0,.2,0,.29.1.27s0,.06-.1.26c.53-.2.72-.4.59-.6s.07-.41.59-.61v.3c.06.1.24.17.54.19s.47,0,.53-.11.31-.14.34-.42.15-.45.35-.5a.54.54,0,0,1-.2.46,2.15,2.15,0,0,0,.64-.27,2.82,2.82,0,0,1,.44-.26c.13.25.05.49-.25.72s-.21.45.25.65a2.1,2.1,0,0,1,.49-.69q.48.15.48.42a.5.5,0,0,1-.19.42.65.65,0,0,1-.2.49c-.13.13-.16.25-.09.35.39,0,.58-.05.58-.16h.1c-.26.41-.49.79-.68,1.15a2.14,2.14,0,0,0-.3,1.06,1.68,1.68,0,0,0-.49.8,2,2,0,0,1-.49.87l-1.17,1.72a13.88,13.88,0,0,1-1.27,1.56,2.92,2.92,0,0,0-.44.57.69.69,0,0,1-.34.34c-.59.61-1.14,1.17-1.66,1.67a9.87,9.87,0,0,1-2.15,1.52c-.72.41-1.76,1-3.13,1.72a14,14,0,0,1-4.3,1.48q-.88.22-3.18.72a32.18,32.18,0,0,1-4.15.65,3.24,3.24,0,0,1-1.51.15,1.8,1.8,0,0,0-1.42.31l-.69.45q-.09.08-.09.12a.79.79,0,0,1,0,.15,5.49,5.49,0,0,1-.54.65c-.39.35-.62.57-.68.64a.32.32,0,0,0-.1.19.35.35,0,0,1-.1.19l-.59.65a14.36,14.36,0,0,0-1.56,1.41,8.84,8.84,0,0,1-2,1.48,20.52,20.52,0,0,1-2.84,1.67,19.53,19.53,0,0,1-3.51,1.37c-.85.26-1.65.48-2.4.69a9.66,9.66,0,0,1-2.49.3,14.41,14.41,0,0,1-2.35-.19,21,21,0,0,1-2.24-.49c-.46-.26-.92-.52-1.37-.8a6.61,6.61,0,0,1-1.17-.88,1.94,1.94,0,0,1-1-1c-.16-.38-.31-.77-.44-1.18-.13-.25-.25-.48-.34-.68a1.52,1.52,0,0,1-.15-.69,1.81,1.81,0,0,1-.2-1.52,20.57,20.57,0,0,1,.49-5.29,22.76,22.76,0,0,1,2-5.21,17.63,17.63,0,0,0,.73-1.86,13,13,0,0,1,.83-1.94c.26-.31.49-.6.69-.88a3.62,3.62,0,0,1,.78-.79c0-.31.13-.46.39-.46a29.59,29.59,0,0,1,2.93-3.84c1.11-1.25,2.28-2.45,3.52-3.62a5.36,5.36,0,0,1,.88-.57,1.44,1.44,0,0,0,.59-.49,3.13,3.13,0,0,0,.87-.84,1.79,1.79,0,0,1,.88-.68,1.87,1.87,0,0,0,.59-.35,5.16,5.16,0,0,0,.39-.41Zm-3.23,25.79a20.61,20.61,0,0,0-2-.84,6.07,6.07,0,0,1-1.91-1.06,10.39,10.39,0,0,1-1.37-1.26,7.52,7.52,0,0,1-.78-1.1,6.63,6.63,0,0,1-.49-1.18c-.13-.43-.29-.95-.49-1.56a.28.28,0,0,1,0,.15.37.37,0,0,0-.05.23,7.33,7.33,0,0,0-1.18,1.25,5.36,5.36,0,0,0-.88,1.49,1.74,1.74,0,0,0-.09.45.85.85,0,0,1-.1.35,3.06,3.06,0,0,0-.2.49c-.06.2-.16.48-.29.84a6.91,6.91,0,0,0-.78,2.62,22,22,0,0,1-.39,2.63,4.29,4.29,0,0,0,.14,1.06,4,4,0,0,1,.15,1.07l.59.68a1.25,1.25,0,0,1,.63,0,.5.5,0,0,0,.44-.07,1.07,1.07,0,0,1,.83-.23,1.51,1.51,0,0,0,.93-.23,1.47,1.47,0,0,1,.59-.38,5.59,5.59,0,0,0,.78-.38c.32-.25.65-.5,1-.72s.68-.47,1.07-.73a4.51,4.51,0,0,1,.78-.53l.25-.11a.64.64,0,0,0,.1-.16A4.48,4.48,0,0,1,323,281c.33-.26.57-.43.74-.54s.3-.19.44-.26l.39-.27a3.36,3.36,0,0,0,.49-.53c.13-.1.19-.19.19-.27Zm3.32-4.57a2.34,2.34,0,0,0,.49-.61,1.41,1.41,0,0,1,.49-.53,15.38,15.38,0,0,0,2-2.55q1-1.56,1.8-3.12c.56-1,1.05-2,1.47-2.89a17.49,17.49,0,0,0,.83-1.94,10.23,10.23,0,0,1,.2-1.1c.06-.28.11-.52.14-.72a3.2,3.2,0,0,0,.05-.61v-.84c0-.71-.42-1.19-1.27-1.45a3.33,3.33,0,0,0-2.64.39,21.81,21.81,0,0,0-3.66,2.51,6.84,6.84,0,0,0-1.81,1.9c-.13.25-.36.64-.68,1.18a6,6,0,0,0-.59,1.1c-.39.56-.57.91-.54,1.07a2.49,2.49,0,0,1-.34,1.06,2.31,2.31,0,0,1,0,.76,3.36,3.36,0,0,0,0,.65,8.6,8.6,0,0,0,0,.91,14.49,14.49,0,0,0,.24,1.56Q325.26,273.35,328.57,274.26Z" transform="translate(-15.45 -18.91)"/><path class="cls-1" d="M163.05,39c7.55,6.06,14.84,12.14,21.19,19.22a154.11,154.11,0,0,1,33.49,61.34c.63,2.21,1.18,4.09,2.15,3.81s2.45-.09,4.78-1.31c.78-.41,9.22-3.87.52-2.07-.21,0-.54.15-.59,0-.47-2-1.43-3.83-1.92-5.85-.72-2.89-1.51-3.29-.79-4s2.8-1,4.64-1.13c9.61-.7,17.82,2.57,24.95,8.59,22,18.53,20,57.07-3.36,73.84-15.84,11.38-32.37,13.22-49.43,4-17.44-9.41-27.53-24-27.78-44.41a37.65,37.65,0,0,1,7.51-22.9c6.12-8.49,14.74-11.09,25.9-8.12,5.76,1.54,6.12,1.25,4.58-4.23-7.43-26.52-22.25-48.39-42.27-67-1-1-2.05-2.67-3.86-1.66-2.25,1.27-.74,3-.23,4.49,6.13,17.71,9.82,35.79,8.21,54.66a66.1,66.1,0,0,1-3.05,15c-1.06,3.3-3.31,3.67-6,2.5s-4.27-2.84-2.87-6c10.38-23.57,4.56-46.33-3.45-69-1.22-3.47-3.67-5.47-6.59-7.39-2.28-1.51-5.45-3.22-3.45-6.85s5-3.15,8.29-1.43c6,3.09,18.75.11,23.06-4.67,8.12-9,19.05-10.38,30.06-9.07C221.91,21.13,233.34,30,242.9,41.42c1.87,2.24,1.45,3.34-1.45,4.13-12,3.26-24,6.73-36.43,7.7-11.82.92-22.24-2.43-29.27-12.94C173.47,36.91,168.69,36.39,163.05,39Z" transform="translate(-15.45 -18.91)"/><path class="cls-1" d="M250.3,275.32c-3.32.2-6.63.51-10,.58-1.6,0-3.43-.22-3.62-2.77s.72-4.41,3-4.73a76.23,76.23,0,0,1,19.09-.2c1.46.17,3.48.64,3.23,3.32-.23,2.52-1.55,4-3.79,4-2.66,0-5.32,0-8,0Z" transform="translate(-15.45 -18.91)"/><path class="cls-1" d="M175,113.68l-2.08,8.23-1.42,3.76.77.58s5.91-9,9.31-9.64C184.14,116.16,175,113.68,175,113.68Z" transform="translate(-15.45 -18.91)"/><path class="cls-1" d="M174.14,180.47c-8.4-12.92-11.29-27-6.66-41.93.32-1,1.87-6.57,1.87-6.57s-4.44-.93-6.14-1.25c-6.15-1.19-12.22-3.29-16.57-8.37a5.69,5.69,0,0,1-1.18-6.19c.88-2.06,2.82-2.5,4.74-2.09,4.38.92,5.26-2.16,5.94-5.17.79-3.45-2.37-3.75-4.39-4.53-14.59-5.62-32.13.9-39.68,14.61-4.91,8.9-6.33,18.6-6.78,28,.23,13.09,3.63,24.43,13.09,33.25,15.62,14.55,33.16,16,53.94,6.55C175.78,185.26,176.39,183.92,174.14,180.47Z" transform="translate(-15.45 -18.91)"/></svg>